<svg width="33" height="32" viewBox="0 0 33 32" fill="none" xmlns="http://www.w3.org/2000/svg">
<g clip-path="url(#clip0_216_1627)">
<path fill-rule="evenodd" clip-rule="evenodd" d="M20.0113 6.39999C20.1788 7.53774 19.7157 8.65236 19.1048 9.44097C18.4512 10.2868 17.3246 10.9411 16.2331 10.9069C16.0338 9.81765 16.544 8.69532 17.1648 7.94086C17.8457 7.1082 19.0128 6.46938 20.0113 6.39999ZM23.2902 22.4144C23.853 21.552 24.0632 21.1169 24.5 20.1433C21.3229 18.9351 20.8138 14.4182 23.9581 12.6846C22.999 11.4819 21.6513 10.7847 20.3791 10.7847C19.4625 10.7847 18.8344 11.0239 18.2635 11.2414C17.7877 11.4226 17.3515 11.5887 16.821 11.5887C16.2477 11.5887 15.7401 11.4067 15.2085 11.2161C14.6244 11.0067 14.0114 10.7869 13.2508 10.7869C11.8232 10.7869 10.3036 11.6592 9.34016 13.1505C7.98588 15.2509 8.21689 19.1994 10.4131 22.5631C11.1981 23.7669 12.2469 25.1194 13.6187 25.1316C14.1879 25.1372 14.5667 24.9673 14.9766 24.7835C15.4457 24.5731 15.9556 24.3444 16.8385 24.3397C17.7266 24.3343 18.2285 24.5658 18.6914 24.7793C19.0908 24.9635 19.4612 25.1344 20.0255 25.1283C21.3984 25.1172 22.5053 23.6182 23.2902 22.4144Z" fill="#0B0B0A"/>
</g>
<defs>
<clipPath id="clip0_216_1627">
<rect width="32" height="32" fill="white" transform="translate(0.5)"/>
</clipPath>
</defs>
</svg>
