<svg width="33" height="32" viewBox="0 0 33 32" fill="none" xmlns="http://www.w3.org/2000/svg">
<path d="M0.5 16C0.5 7.16344 7.66344 0 16.5 0C25.3366 0 32.5 7.16344 32.5 16C32.5 24.8366 25.3366 32 16.5 32C7.66344 32 0.5 24.8366 0.5 16Z" fill="white"/>
<path d="M16.5001 11.0933C18.0023 11.0933 19.0156 11.7422 19.5934 12.2844L21.8512 10.08C20.4645 8.79111 18.6601 8 16.5001 8C13.3712 8 10.6689 9.79556 9.35339 12.4089L11.9401 14.4178C12.589 12.4889 14.3845 11.0933 16.5001 11.0933Z" fill="#EA4335"/>
<path d="M24.18 16.1778C24.18 15.52 24.1267 15.04 24.0111 14.5422H16.5V17.5111H20.9089C20.82 18.2489 20.34 19.36 19.2733 20.1067L21.7978 22.0622C23.3089 20.6667 24.18 18.6133 24.18 16.1778Z" fill="#4285F4"/>
<path d="M11.9489 17.5822C11.78 17.0845 11.6822 16.5511 11.6822 16C11.6822 15.4489 11.78 14.9156 11.94 14.4178L9.35333 12.4089C8.81111 13.4933 8.5 14.7111 8.5 16C8.5 17.2889 8.81111 18.5067 9.35333 19.5911L11.9489 17.5822Z" fill="#FBBC05"/>
<path d="M16.5 24C18.66 24 20.4733 23.2889 21.7977 22.0622L19.2733 20.1067C18.5977 20.5778 17.6911 20.9067 16.5 20.9067C14.3844 20.9067 12.5889 19.5111 11.9489 17.5822L9.36218 19.5911C10.6777 22.2044 13.3711 24 16.5 24Z" fill="#34A853"/>
</svg>
