<svg width="198" height="43" viewBox="0 0 198 43" fill="none" xmlns="http://www.w3.org/2000/svg">
<g clip-path="url(#clip0_110_21461)">
<path d="M71.0576 25.1619C71.0576 30.4614 67.469 34.7434 61.5615 34.7328C55.6541 34.7328 52.118 30.4402 52.118 25.1407C52.118 19.8837 55.738 15.5593 61.5406 15.5699C67.3326 15.5699 71.0576 19.9049 71.0576 25.1619ZM56.6299 25.1513C56.6299 27.9495 58.2878 30.5568 61.572 30.5568C64.8563 30.5568 66.5142 27.9495 66.5247 25.1513C66.5247 22.3956 64.6045 19.7035 61.5825 19.7035C58.3297 19.7035 56.6299 22.385 56.6299 25.1407V25.1513Z" fill="black"/>
<path d="M86.2512 34.3406V24.4942C86.2512 22.067 85.0026 19.873 82.5367 19.873C80.1024 19.873 78.6649 22.067 78.6544 24.4942V34.3406H74.1425V15.9196H78.3291L78.6544 18.156C79.6197 16.2906 81.7183 15.6229 83.4496 15.6229C85.6321 15.6229 87.8041 16.5238 88.8324 19.0569C90.4588 16.4496 92.5574 15.7077 94.9288 15.7077C100.091 15.7077 102.641 18.9191 102.631 24.4412V34.3618H98.1186V24.4412C98.1186 22.014 97.1323 19.9684 94.6979 19.9684C92.2636 19.9684 90.7421 22.0882 90.7421 24.5154V34.3618H86.2302L86.2512 34.3406Z" fill="black"/>
<path d="M120.626 34.3724V24.7592C120.626 21.9611 119.125 19.8413 116.25 19.8307C113.48 19.8307 111.602 22.173 111.591 24.9712V34.3618H107.121V15.9408H111.161L111.455 18.4422C113.302 16.6192 115.149 15.6865 117.436 15.6865C121.717 15.6865 125.148 18.9403 125.138 24.7168V34.3724H120.626Z" fill="black"/>
<path d="M133.931 10.8215C133.931 14.3616 128.611 14.3616 128.621 10.8215C128.621 7.28149 133.941 7.28149 133.931 10.8215ZM129.02 15.9302V34.383H133.511V15.9302H129.02Z" fill="black"/>
<path d="M142.094 8.33078V18.5058C143.154 16.6086 146.144 15.5593 148.065 15.5699C153.374 15.5699 157.33 18.8556 157.319 25.1937C157.319 31.2351 153.29 34.807 147.939 34.807C145.725 34.807 143.469 34.0545 142.073 31.8605L141.779 34.3936H137.572L137.593 8.33078H142.094ZM142.377 25.1831C142.377 28.5006 144.812 30.5886 147.655 30.5886C150.53 30.5886 152.828 28.3946 152.828 25.1831C152.828 21.8657 150.541 19.8095 147.666 19.8095C144.822 19.8095 142.388 21.9716 142.388 25.1725L142.377 25.1831Z" fill="black"/>
<path d="M165.262 16.0256V25.6389C165.262 28.437 166.763 30.5568 169.638 30.5674C172.408 30.5674 174.286 28.225 174.297 25.4269V16.0362H178.767V34.4572H174.727L174.433 31.9559C172.544 33.8213 170.813 34.7116 168.263 34.7116C163.909 34.7116 160.74 31.3835 160.74 25.6813V16.0256H165.252H165.262Z" fill="black"/>
<path d="M194.642 20.9329C193.352 19.7035 191.872 19.2901 190.141 19.2901C188 19.2901 186.815 19.9578 186.815 21.1131C186.815 22.3108 187.885 22.9785 190.204 23.1269C193.635 23.3495 197.99 24.1444 197.99 29.02C197.99 32.2632 195.366 35.0614 190.162 35.0508C187.287 35.0508 184.401 34.5632 181.747 31.7651L183.961 28.5218C185.251 29.9739 188.2 31.0656 190.235 31.0974C191.935 31.1397 193.52 30.2388 193.52 28.9034C193.52 27.6315 192.491 27.1121 189.9 26.9638C186.468 26.6988 182.376 25.4269 182.376 21.2509C182.376 17.0007 186.731 15.5169 190.057 15.5169C192.901 15.5169 195.041 16.0786 197.14 17.944L194.632 20.9223L194.642 20.9329Z" fill="black"/>
<path d="M27.082 27.3559C25.8649 30.0904 23.8188 32.3586 21.2795 33.8637C19.1914 35.0932 16.7571 35.8033 14.1548 35.7927C12.0878 35.7927 10.1256 35.3369 8.35231 34.5314C3.53609 32.348 0.157393 27.5255 0 21.8975C0 21.7597 0 21.6219 0 21.4841C0 21.3463 0 21.2085 0 21.0707C0.167886 15.4321 3.55707 10.6202 8.37329 8.43677C7.57583 10.228 7.13514 12.21 7.13514 14.298C7.13514 16.9159 7.82766 19.3749 9.04483 21.4947C10.5243 24.0702 12.7803 26.1264 15.4769 27.3559C17.2502 28.1614 19.2124 28.6172 21.2795 28.6172C23.3466 28.6172 25.3087 28.172 27.082 27.3665V27.3559Z" fill="url(#paint0_linear_110_21461)"/>
<path d="M42.5695 21.5159C42.5695 21.6537 42.5695 21.7915 42.5695 21.9293C42.4016 27.5573 39.0229 32.3798 34.2067 34.5632C35.0041 32.772 35.4448 30.79 35.4448 28.702C35.4448 26.0841 34.7523 23.6251 33.5351 21.5053C32.0556 18.9297 29.7997 16.8735 27.103 15.6441C25.3297 14.8385 23.3676 14.3934 21.3005 14.3934C19.2334 14.3934 17.2712 14.8385 15.4979 15.6441C16.7151 12.9095 18.7612 10.6414 21.3005 9.1469C23.3885 7.91742 25.8229 7.20729 28.4251 7.21789C30.4922 7.21789 32.4544 7.67365 34.2277 8.47917C39.0334 10.6732 42.4121 15.4851 42.5695 21.1237C42.5695 21.2615 42.5695 21.3993 42.5695 21.5371V21.5159Z" fill="url(#paint1_linear_110_21461)"/>
<path d="M34.2172 8.45797C32.4439 7.65245 30.4817 7.1967 28.4146 7.1967C25.8229 7.1967 23.3885 7.89623 21.29 9.12571C18.7507 10.6202 16.7046 12.8989 15.4874 15.6229C14.69 17.4141 14.2388 19.3961 14.2388 21.4841C14.2388 23.5721 14.6795 25.5541 15.4769 27.3453C12.7698 26.1158 10.5243 24.0491 9.04482 21.4841C7.82765 19.3643 7.12463 16.9159 7.13513 14.2874C7.13513 12.1994 7.57582 10.2174 8.37328 8.42618C10.5348 3.58245 15.3091 0.158984 20.8912 0C21.0277 0 21.1641 0 21.3005 0C21.4369 0 21.5733 0 21.7097 0C27.2919 0.169583 32.0556 3.59305 34.2172 8.44737V8.45797Z" fill="url(#paint2_linear_110_21461)"/>
<path d="M35.4343 28.702C35.4343 30.79 34.9936 32.772 34.1962 34.5632C32.0242 39.4176 27.2499 42.841 21.6782 42.9894C21.5418 42.9894 21.4054 42.9894 21.269 42.9894C21.1326 42.9894 20.9962 42.9894 20.8598 42.9894C15.2776 42.8198 10.5138 39.3964 8.35229 34.542C10.1256 35.3475 12.0877 35.8033 14.1548 35.8033C16.7466 35.8033 19.1809 35.1038 21.2795 33.8743C23.8292 32.3798 25.8649 30.1011 27.082 27.3665C27.8795 25.5753 28.3202 23.5933 28.3202 21.5053C28.3202 19.4173 27.8795 17.4353 27.082 15.6441C29.7892 16.8736 32.0347 18.9404 33.5141 21.5053C34.7313 23.6251 35.4343 26.0735 35.4238 28.702H35.4343Z" fill="url(#paint3_linear_110_21461)"/>
</g>
<defs>
<linearGradient id="paint0_linear_110_21461" x1="4.45855" y1="16.421" x2="18.7655" y2="32.8547" gradientUnits="userSpaceOnUse">
<stop stop-color="#4CD9DF"/>
<stop offset="1" stop-color="#00C9D2"/>
</linearGradient>
<linearGradient id="paint1_linear_110_21461" x1="38.4704" y1="25.0195" x2="27.4406" y2="14.725" gradientUnits="userSpaceOnUse">
<stop stop-color="#4CD9DF"/>
<stop offset="1" stop-color="#00C9D2"/>
</linearGradient>
<linearGradient id="paint2_linear_110_21461" x1="7.13612" y1="13.6671" x2="34.2181" y2="13.6858" gradientUnits="userSpaceOnUse">
<stop stop-color="#1E18CF"/>
<stop offset="1" stop-color="#625DDD"/>
</linearGradient>
<linearGradient id="paint3_linear_110_21461" x1="31.7289" y1="17.2457" x2="17.6787" y2="40.1739" gradientUnits="userSpaceOnUse">
<stop stop-color="#1E18CF"/>
<stop offset="1" stop-color="#625DDD"/>
</linearGradient>
<clipPath id="clip0_110_21461">
<rect width="198" height="43" fill="white"/>
</clipPath>
</defs>
</svg>
